# xmcd
#
# Track frame offsets:
#	150
#	27829
#	57447
#	87034
#	132050
#	173806
#
# Disc length: 2581 seconds
#
# Revision: 1
# Processed by: cddbd v1.5.2PL0 Copyright (c) Steve Scherf et al.
# Submitted via: audiograbber 1.83.01
#
DISCID=420a1306
DTITLE=Grateful Dead - 80-10-02 Warfield Theatre, San Francisco CA
DYEAR=1900
DGENRE=
TTITLE0=Playing In The Band
TTITLE1=Drums
TTITLE2=Space
TTITLE3=Stella Blue
TTITLE4=Sugar Magnolia
TTITLE5=Alabama Getaway
EXTD=
EXTT0=
EXTT1=
EXTT2=
EXTT3=
EXTT4=
EXTT5=
PLAYORDER=
